<svg xmlns="http://www.w3.org/2000/svg" viewBox="0 0 1200 800">
  <defs>
    <linearGradient id="awsGrad" x1="0%" y1="0%" x2="100%" y2="100%">
      <stop offset="0%" style="stop-color:#232F3E;stop-opacity:1" />
      <stop offset="100%" style="stop-color:#1A242F;stop-opacity:1" />
    </linearGradient>
  </defs>
  <rect width="1200" height="800" fill="#f5f5f5"/>
  <text x="600" y="40" text-anchor="middle" font-family="Arial" font-size="24" font-weight="bold" fill="#232F3E">AWS Static Website Architecture - xurxo.cloud</text>
  <g transform="translate(100, 350)">
    <circle cx="40" cy="20" r="20" fill="#4A90D9"/>
    <rect x="15" y="45" width="50" height="40" rx="5" fill="#4A90D9"/>
    <text x="40" y="110" text-anchor="middle" font-family="Arial" font-size="14" font-weight="bold" fill="#333">User</text>
  </g>
  <rect x="250" y="80" width="700" height="600" rx="15" fill="url(#awsGrad)" opacity="0.1" stroke="#FF9900" stroke-width="3"/>
  <text x="600" y="110" text-anchor="middle" font-family="Arial" font-size="18" font-weight="bold" fill="#FF9900">AWS Cloud</text>
  <g transform="translate(300, 150)">
    <rect width="120" height="80" rx="10" fill="#8C4FFF"/>
    <text x="60" y="35" text-anchor="middle" font-family="Arial" font-size="12" font-weight="bold" fill="white">Route 53</text>
    <text x="60" y="55" text-anchor="middle" font-family="Arial" font-size="10" fill="white">DNS</text>
  </g>
  <g transform="translate(300, 260)">
    <rect width="120" height="80" rx="10" fill="#DD344C"/>
    <text x="60" y="35" text-anchor="middle" font-family="Arial" font-size="12" font-weight="bold" fill="white">ACM</text>
    <text x="60" y="55" text-anchor="middle" font-family="Arial" font-size="10" fill="white">SSL/TLS</text>
  </g>
  <g transform="translate(480, 200)">
    <rect width="150" height="100" rx="10" fill="#8C4FFF"/>
    <text x="75" y="35" text-anchor="middle" font-family="Arial" font-size="14" font-weight="bold" fill="white">CloudFront</text>
    <text x="75" y="55" text-anchor="middle" font-family="Arial" font-size="10" fill="white">CDN</text>
  </g>
  <g transform="translate(700, 200)">
    <rect width="140" height="100" rx="10" fill="#3F8624"/>
    <text x="70" y="35" text-anchor="middle" font-family="Arial" font-size="14" font-weight="bold" fill="white">S3 Bucket</text>
    <text x="70" y="55" text-anchor="middle" font-family="Arial" font-size="10" fill="white">Static Files</text>
  </g>
  <g transform="translate(480, 380)">
    <rect width="130" height="80" rx="10" fill="#E7157B"/>
    <text x="65" y="35" text-anchor="middle" font-family="Arial" font-size="12" font-weight="bold" fill="white">CloudWatch</text>
    <text x="65" y="55" text-anchor="middle" font-family="Arial" font-size="10" fill="white">Monitoring</text>
  </g>
  <g transform="translate(650, 380)">
    <rect width="130" height="80" rx="10" fill="#C925D1"/>
    <text x="65" y="35" text-anchor="middle" font-family="Arial" font-size="12" font-weight="bold" fill="white">AWS Budget</text>
    <text x="65" y="55" text-anchor="middle" font-family="Arial" font-size="10" fill="white">$10/month</text>
  </g>
  <rect x="250" y="520" width="700" height="130" rx="15" fill="#E8F5E9" stroke="#4CAF50" stroke-width="2"/>
  <text x="600" y="545" text-anchor="middle" font-family="Arial" font-size="14" font-weight="bold" fill="#2E7D32">External Services</text>
  <g transform="translate(300, 560)">
    <rect width="110" height="70" rx="8" fill="#FF6D00"/>
    <text x="55" y="35" text-anchor="middle" font-family="Arial" font-size="11" font-weight="bold" fill="white">Namecheap</text>
    <text x="55" y="52" text-anchor="middle" font-family="Arial" font-size="9" fill="white">Domain</text>
  </g>
  <g transform="translate(450, 560)">
    <rect width="110" height="70" rx="8" fill="#24292E"/>
    <text x="55" y="35" text-anchor="middle" font-family="Arial" font-size="11" font-weight="bold" fill="white">GitHub</text>
    <text x="55" y="52" text-anchor="middle" font-family="Arial" font-size="9" fill="white">Actions CI/CD</text>
  </g>
  <g transform="translate(600, 560)">
    <rect width="110" height="70" rx="8" fill="#E91E63"/>
    <text x="55" y="35" text-anchor="middle" font-family="Arial" font-size="11" font-weight="bold" fill="white">Formspree</text>
    <text x="55" y="52" text-anchor="middle" font-family="Arial" font-size="9" fill="white">Contact Form</text>
  </g>
  <path d="M 180 380 L 480 260" stroke="#4A90D9" stroke-width="3" fill="none"/>
  <line x1="420" y1="190" x2="480" y2="230" stroke="#8C4FFF" stroke-width="2"/>
  <line x1="420" y1="300" x2="480" y2="270" stroke="#DD344C" stroke-width="2" stroke-dasharray="5,3"/>
  <path d="M 630 250 L 700 250" stroke="#3F8624" stroke-width="3" fill="none"/>
  <line x1="555" y1="300" x2="545" y2="380" stroke="#E7157B" stroke-width="2" stroke-dasharray="5,3"/>
  <line x1="355" y1="560" x2="360" y2="230" stroke="#FF6D00" stroke-width="2" stroke-dasharray="5,3"/>
  <path d="M 505 560 Q 600 480 770 300" stroke="#24292E" stroke-width="2" fill="none"/>
</svg>
